<mxfile host="app.diagrams.net" modified="2020-08-22T12:05:05.412Z" agent="5.0 (Macintosh; Intel Mac OS X 10_15_5) AppleWebKit/537.36 (KHTML, like Gecko) Chrome/84.0.4147.125 Safari/537.36" etag="5TKp9d-1Ygo0Xj4Pj5ML" version="13.6.2" type="github">
  <diagram id="9vb1cIwi1EojU_LQOEii" name="Page-1">
    <mxGraphModel dx="2066" dy="1154" grid="1" gridSize="10" guides="1" tooltips="1" connect="1" arrows="1" fold="1" page="1" pageScale="1" pageWidth="827" pageHeight="1169" math="0" shadow="0">
      <root>
        <mxCell id="0" />
        <mxCell id="1" parent="0" />
        <mxCell id="kIH2ZqjncGb_pux0dPVc-11" style="edgeStyle=orthogonalEdgeStyle;rounded=0;orthogonalLoop=1;jettySize=auto;html=1;entryX=0;entryY=0.5;entryDx=0;entryDy=0;curved=1;strokeWidth=2;" edge="1" parent="1" source="kIH2ZqjncGb_pux0dPVc-1" target="kIH2ZqjncGb_pux0dPVc-4">
          <mxGeometry relative="1" as="geometry" />
        </mxCell>
        <mxCell id="kIH2ZqjncGb_pux0dPVc-1" value="Producer" style="rounded=0;whiteSpace=wrap;html=1;fillColor=#dae8fc;strokeColor=#6c8ebf;" vertex="1" parent="1">
          <mxGeometry x="40" y="360" width="120" height="110" as="geometry" />
        </mxCell>
        <mxCell id="kIH2ZqjncGb_pux0dPVc-2" value="Consumer" style="rounded=0;whiteSpace=wrap;html=1;fillColor=#dae8fc;strokeColor=#6c8ebf;" vertex="1" parent="1">
          <mxGeometry x="600" y="360" width="120" height="110" as="geometry" />
        </mxCell>
        <mxCell id="kIH2ZqjncGb_pux0dPVc-12" style="edgeStyle=orthogonalEdgeStyle;curved=1;rounded=0;orthogonalLoop=1;jettySize=auto;html=1;entryX=0.583;entryY=0;entryDx=0;entryDy=0;entryPerimeter=0;strokeWidth=2;" edge="1" parent="1" source="kIH2ZqjncGb_pux0dPVc-4" target="kIH2ZqjncGb_pux0dPVc-2">
          <mxGeometry relative="1" as="geometry" />
        </mxCell>
        <mxCell id="kIH2ZqjncGb_pux0dPVc-3" value="" style="shape=table;html=1;whiteSpace=wrap;startSize=0;container=1;collapsible=0;childLayout=tableLayout;fillColor=#dae8fc;strokeColor=#6c8ebf;" vertex="1" parent="1">
          <mxGeometry x="210" y="270" width="360" height="40" as="geometry" />
        </mxCell>
        <mxCell id="kIH2ZqjncGb_pux0dPVc-4" value="" style="shape=partialRectangle;html=1;whiteSpace=wrap;collapsible=0;dropTarget=0;pointerEvents=0;fillColor=none;top=0;left=0;bottom=0;right=0;points=[[0,0.5],[1,0.5]];portConstraint=eastwest;" vertex="1" parent="kIH2ZqjncGb_pux0dPVc-3">
          <mxGeometry width="360" height="40" as="geometry" />
        </mxCell>
        <mxCell id="kIH2ZqjncGb_pux0dPVc-5" value="" style="shape=partialRectangle;html=1;whiteSpace=wrap;connectable=0;overflow=hidden;fillColor=none;top=0;left=0;bottom=0;right=0;" vertex="1" parent="kIH2ZqjncGb_pux0dPVc-4">
          <mxGeometry width="60" height="40" as="geometry" />
        </mxCell>
        <mxCell id="kIH2ZqjncGb_pux0dPVc-6" value="" style="shape=partialRectangle;html=1;whiteSpace=wrap;connectable=0;overflow=hidden;fillColor=none;top=0;left=0;bottom=0;right=0;" vertex="1" parent="kIH2ZqjncGb_pux0dPVc-4">
          <mxGeometry x="60" width="60" height="40" as="geometry" />
        </mxCell>
        <mxCell id="kIH2ZqjncGb_pux0dPVc-7" value="" style="shape=partialRectangle;html=1;whiteSpace=wrap;connectable=0;overflow=hidden;fillColor=none;top=0;left=0;bottom=0;right=0;" vertex="1" parent="kIH2ZqjncGb_pux0dPVc-4">
          <mxGeometry x="120" width="60" height="40" as="geometry" />
        </mxCell>
        <mxCell id="kIH2ZqjncGb_pux0dPVc-8" value="" style="shape=partialRectangle;html=1;whiteSpace=wrap;connectable=0;overflow=hidden;fillColor=none;top=0;left=0;bottom=0;right=0;" vertex="1" parent="kIH2ZqjncGb_pux0dPVc-4">
          <mxGeometry x="180" width="60" height="40" as="geometry" />
        </mxCell>
        <mxCell id="kIH2ZqjncGb_pux0dPVc-9" value="" style="shape=partialRectangle;html=1;whiteSpace=wrap;connectable=0;overflow=hidden;fillColor=none;top=0;left=0;bottom=0;right=0;" vertex="1" parent="kIH2ZqjncGb_pux0dPVc-4">
          <mxGeometry x="240" width="60" height="40" as="geometry" />
        </mxCell>
        <mxCell id="kIH2ZqjncGb_pux0dPVc-10" value="" style="shape=partialRectangle;html=1;whiteSpace=wrap;connectable=0;overflow=hidden;fillColor=none;top=0;left=0;bottom=0;right=0;" vertex="1" parent="kIH2ZqjncGb_pux0dPVc-4">
          <mxGeometry x="300" width="60" height="40" as="geometry" />
        </mxCell>
        <mxCell id="kIH2ZqjncGb_pux0dPVc-13" value="&lt;font style=&quot;font-size: 17px&quot;&gt;Buffer (of size N)&lt;/font&gt;" style="text;html=1;align=center;verticalAlign=middle;resizable=0;points=[];autosize=1;" vertex="1" parent="1">
          <mxGeometry x="315" y="230" width="140" height="20" as="geometry" />
        </mxCell>
      </root>
    </mxGraphModel>
  </diagram>
</mxfile>
